<svg width="61" height="61" viewBox="0 0 61 61" fill="none" xmlns="http://www.w3.org/2000/svg">
<g clip-path="url(#clip0_207_38)">
<path fill-rule="evenodd" clip-rule="evenodd" d="M60.0492 30.6201C60.0492 14.0516 46.6177 0.620117 30.0492 0.620117C13.4806 0.620117 0.0491943 14.0516 0.0491943 30.6201C0.0491943 45.5939 11.0198 58.0051 25.3617 60.2556V39.2921H17.7445V30.6201H25.3617V24.0107C25.3617 16.492 29.8404 12.3389 36.6932 12.3389C39.9754 12.3389 43.4087 12.9248 43.4087 12.9248V20.3076H39.6257C35.8989 20.3076 34.7367 22.6201 34.7367 24.9926V30.6201H43.0569L41.7269 39.2921H34.7367V60.2556C49.0787 58.0051 60.0492 45.5939 60.0492 30.6201Z" fill="white"/>
</g>
<rect x="0.549194" y="1.12012" width="59" height="59" stroke="black"/>
<defs>
<clipPath id="clip0_207_38">
<rect x="0.0491943" y="0.620117" width="60" height="60" fill="white"/>
</clipPath>
</defs>
</svg>
