<svg width="60" height="60" viewBox="0 0 60 60" fill="none" xmlns="http://www.w3.org/2000/svg">
<path d="M56.2526 30.5829C56.2526 28.4246 56.074 26.8496 55.6871 25.2163H30.5383V34.9579H45.3002C45.0026 37.3789 43.3954 41.0246 39.8239 43.4745L39.7738 43.8007L47.7255 49.8375L48.2764 49.8913C53.3359 45.3122 56.2526 38.5746 56.2526 30.5829Z" fill="#4285F4"/>
<path d="M30.5367 56.2496C37.7688 56.2496 43.84 53.9162 48.2748 49.8911L39.8223 43.4743C37.5604 45.0202 34.5246 46.0993 30.5367 46.0993C23.4535 46.0993 17.4416 41.5202 15.2986 35.1911L14.9844 35.2172L6.71629 41.4881L6.60815 41.7827C11.0129 50.3576 20.0605 56.2496 30.5367 56.2496Z" fill="#34A853"/>
<path d="M15.2994 35.1919C14.734 33.5586 14.4067 31.8084 14.4067 30.0002C14.4067 28.1918 14.734 26.4418 15.2697 24.8085L15.2547 24.4605L6.88292 18.089L6.60902 18.2167C4.79363 21.7751 3.75195 25.7709 3.75195 30.0002C3.75195 34.2293 4.79363 38.2251 6.60902 41.7834L15.2994 35.1919Z" fill="#FBBC05"/>
<path d="M30.5369 13.8999C35.5666 13.8999 38.9594 16.0291 40.894 17.8084L48.4534 10.575C43.8108 6.34584 37.7689 3.75 30.5369 3.75C20.0605 3.75 11.0129 9.64163 6.60815 18.2165L15.2689 24.8083C17.4417 18.4792 23.4535 13.8999 30.5369 13.8999Z" fill="#EB4335"/>
</svg>
